<mxfile host="app.diagrams.net" modified="2021-08-26T17:50:25.638Z" agent="5.0 (Windows NT 10.0; Win64; x64) AppleWebKit/537.36 (KHTML, like Gecko) Chrome/92.0.4515.159 Safari/537.36" etag="E0_LSJNpY8sesbEmiN9i" version="15.0.1" type="github">
  <diagram id="C5RBs43oDa-KdzZeNtuy" name="Page-1">
    <mxGraphModel dx="1502" dy="673" grid="1" gridSize="10" guides="1" tooltips="1" connect="1" arrows="1" fold="1" page="1" pageScale="1" pageWidth="827" pageHeight="1169" math="0" shadow="0">
      <root>
        <mxCell id="WIyWlLk6GJQsqaUBKTNV-0" />
        <mxCell id="WIyWlLk6GJQsqaUBKTNV-1" parent="WIyWlLk6GJQsqaUBKTNV-0" />
        <mxCell id="7ugrbNDjInq6VxTkpWoA-11" style="edgeStyle=orthogonalEdgeStyle;rounded=0;orthogonalLoop=1;jettySize=auto;html=1;exitX=0.5;exitY=1;exitDx=0;exitDy=0;entryX=0.5;entryY=0;entryDx=0;entryDy=0;" edge="1" parent="WIyWlLk6GJQsqaUBKTNV-1" source="7ugrbNDjInq6VxTkpWoA-0" target="7ugrbNDjInq6VxTkpWoA-3">
          <mxGeometry relative="1" as="geometry" />
        </mxCell>
        <mxCell id="7ugrbNDjInq6VxTkpWoA-0" value="Enter Grade" style="rounded=0;whiteSpace=wrap;html=1;" vertex="1" parent="WIyWlLk6GJQsqaUBKTNV-1">
          <mxGeometry x="354" y="220" width="120" height="60" as="geometry" />
        </mxCell>
        <mxCell id="7ugrbNDjInq6VxTkpWoA-9" style="edgeStyle=orthogonalEdgeStyle;rounded=0;orthogonalLoop=1;jettySize=auto;html=1;exitX=1;exitY=0.5;exitDx=0;exitDy=0;entryX=0.5;entryY=0;entryDx=0;entryDy=0;" edge="1" parent="WIyWlLk6GJQsqaUBKTNV-1" source="7ugrbNDjInq6VxTkpWoA-3" target="7ugrbNDjInq6VxTkpWoA-4">
          <mxGeometry relative="1" as="geometry" />
        </mxCell>
        <mxCell id="7ugrbNDjInq6VxTkpWoA-10" style="edgeStyle=orthogonalEdgeStyle;rounded=0;orthogonalLoop=1;jettySize=auto;html=1;exitX=0;exitY=0.5;exitDx=0;exitDy=0;entryX=0.5;entryY=0;entryDx=0;entryDy=0;" edge="1" parent="WIyWlLk6GJQsqaUBKTNV-1" source="7ugrbNDjInq6VxTkpWoA-3" target="7ugrbNDjInq6VxTkpWoA-5">
          <mxGeometry relative="1" as="geometry" />
        </mxCell>
        <mxCell id="7ugrbNDjInq6VxTkpWoA-3" value="if grade &amp;lt; 60" style="rhombus;whiteSpace=wrap;html=1;" vertex="1" parent="WIyWlLk6GJQsqaUBKTNV-1">
          <mxGeometry x="376" y="360" width="76" height="80" as="geometry" />
        </mxCell>
        <mxCell id="7ugrbNDjInq6VxTkpWoA-14" style="edgeStyle=orthogonalEdgeStyle;rounded=0;orthogonalLoop=1;jettySize=auto;html=1;exitX=0.5;exitY=1;exitDx=0;exitDy=0;entryX=1;entryY=0.5;entryDx=0;entryDy=0;" edge="1" parent="WIyWlLk6GJQsqaUBKTNV-1" source="7ugrbNDjInq6VxTkpWoA-4" target="7ugrbNDjInq6VxTkpWoA-7">
          <mxGeometry relative="1" as="geometry" />
        </mxCell>
        <mxCell id="7ugrbNDjInq6VxTkpWoA-4" value="print failing grade" style="rounded=0;whiteSpace=wrap;html=1;" vertex="1" parent="WIyWlLk6GJQsqaUBKTNV-1">
          <mxGeometry x="454" y="470" width="120" height="60" as="geometry" />
        </mxCell>
        <mxCell id="7ugrbNDjInq6VxTkpWoA-13" style="edgeStyle=orthogonalEdgeStyle;rounded=0;orthogonalLoop=1;jettySize=auto;html=1;exitX=0.5;exitY=1;exitDx=0;exitDy=0;entryX=0;entryY=0.5;entryDx=0;entryDy=0;" edge="1" parent="WIyWlLk6GJQsqaUBKTNV-1" source="7ugrbNDjInq6VxTkpWoA-5" target="7ugrbNDjInq6VxTkpWoA-7">
          <mxGeometry relative="1" as="geometry" />
        </mxCell>
        <mxCell id="7ugrbNDjInq6VxTkpWoA-5" value="print passing grade" style="rounded=0;whiteSpace=wrap;html=1;" vertex="1" parent="WIyWlLk6GJQsqaUBKTNV-1">
          <mxGeometry x="254" y="470" width="120" height="60" as="geometry" />
        </mxCell>
        <mxCell id="7ugrbNDjInq6VxTkpWoA-12" style="edgeStyle=orthogonalEdgeStyle;rounded=0;orthogonalLoop=1;jettySize=auto;html=1;exitX=0.5;exitY=1;exitDx=0;exitDy=0;entryX=0.5;entryY=0;entryDx=0;entryDy=0;" edge="1" parent="WIyWlLk6GJQsqaUBKTNV-1" source="7ugrbNDjInq6VxTkpWoA-6" target="7ugrbNDjInq6VxTkpWoA-0">
          <mxGeometry relative="1" as="geometry" />
        </mxCell>
        <mxCell id="7ugrbNDjInq6VxTkpWoA-6" value="start" style="ellipse;whiteSpace=wrap;html=1;aspect=fixed;" vertex="1" parent="WIyWlLk6GJQsqaUBKTNV-1">
          <mxGeometry x="374" y="60" width="80" height="80" as="geometry" />
        </mxCell>
        <mxCell id="7ugrbNDjInq6VxTkpWoA-7" value="end" style="ellipse;whiteSpace=wrap;html=1;aspect=fixed;" vertex="1" parent="WIyWlLk6GJQsqaUBKTNV-1">
          <mxGeometry x="374" y="630" width="80" height="80" as="geometry" />
        </mxCell>
        <mxCell id="7ugrbNDjInq6VxTkpWoA-15" value="yes" style="text;html=1;align=center;verticalAlign=middle;resizable=0;points=[];autosize=1;strokeColor=none;" vertex="1" parent="WIyWlLk6GJQsqaUBKTNV-1">
          <mxGeometry x="474" y="370" width="30" height="20" as="geometry" />
        </mxCell>
        <mxCell id="7ugrbNDjInq6VxTkpWoA-16" value="no" style="text;html=1;align=center;verticalAlign=middle;resizable=0;points=[];autosize=1;strokeColor=none;" vertex="1" parent="WIyWlLk6GJQsqaUBKTNV-1">
          <mxGeometry x="310" y="370" width="30" height="20" as="geometry" />
        </mxCell>
      </root>
    </mxGraphModel>
  </diagram>
</mxfile>
